<svg width="20" height="20" viewBox="0 0 20 20" fill="none" xmlns="http://www.w3.org/2000/svg">
<g filter="url(#filter0_d_2097_10471)">
<g filter="url(#filter1_d_2097_10471)">
<rect x="7" y="15" width="1" height="3" fill="black"/>
<rect x="6" y="14" width="1" height="1" fill="black"/>
<rect x="5" y="13" width="1" height="1" fill="black"/>
<rect x="4" y="12" width="1" height="1" fill="black"/>
<rect x="3" y="11" width="1" height="1" fill="black"/>
<rect x="5" y="9" width="1" height="1" fill="black"/>
<rect x="15" y="6" width="1" height="1" fill="black"/>
<rect x="16" y="5" width="1" height="1" fill="black"/>
<rect x="17" y="6" width="1" height="4" fill="black"/>
<rect x="16" y="10" width="1" height="3" fill="black"/>
<rect x="15" y="13" width="1" height="2" fill="black"/>
<rect x="14" y="15" width="1" height="3" fill="black"/>
<rect x="6" y="8" width="1" height="3" fill="black"/>
<rect x="2" y="9" width="1" height="2" fill="black"/>
<rect x="5" y="6" width="1" height="2" fill="black"/>
<rect x="4" y="4" width="1" height="2" fill="black"/>
<rect x="7" y="4" width="1" height="2" fill="black"/>
<rect x="8" y="3" width="1" height="5" fill="black"/>
<rect x="11" y="3" width="1" height="5" fill="black"/>
<rect x="14" y="4" width="1" height="5" fill="black"/>
<rect x="3" y="8" width="2" height="1" fill="black"/>
<rect x="5" y="3" width="2" height="1" fill="black"/>
<rect x="12" y="3" width="2" height="1" fill="black"/>
<rect x="9" y="2" width="2" height="1" fill="black"/>
<rect x="8" y="17" width="6" height="1" fill="black"/>
<rect x="5" y="4" width="2" height="2" fill="white"/>
<rect x="6" y="6" width="2" height="2" fill="white"/>
<rect x="6" y="11" width="1" height="3" fill="white"/>
<rect x="5" y="10" width="1" height="3" fill="white"/>
<rect x="4" y="9" width="1" height="3" fill="white"/>
<rect x="3" y="9" width="1" height="2" fill="white"/>
<rect x="7" y="8" width="8" height="7" fill="white"/>
<rect x="9" y="3" width="2" height="5" fill="white"/>
<rect x="12" y="4" width="2" height="4" fill="white"/>
<rect x="16" y="6" width="1" height="4" fill="white"/>
<rect x="15" y="7" width="1" height="6" fill="white"/>
<rect x="8" y="15" width="6" height="2" fill="white"/>
</g>
</g>
<defs>
<filter id="filter0_d_2097_10471" x="-1" y="0" width="22" height="22" filterUnits="userSpaceOnUse" color-interpolation-filters="sRGB">
<feFlood flood-opacity="0" result="BackgroundImageFix"/>
<feColorMatrix in="SourceAlpha" type="matrix" values="0 0 0 0 0 0 0 0 0 0 0 0 0 0 0 0 0 0 127 0" result="hardAlpha"/>
<feOffset dy="1"/>
<feGaussianBlur stdDeviation="0.5"/>
<feComposite in2="hardAlpha" operator="out"/>
<feColorMatrix type="matrix" values="0 0 0 0 0 0 0 0 0 0 0 0 0 0 0 0 0 0 0.1 0"/>
<feBlend mode="normal" in2="BackgroundImageFix" result="effect1_dropShadow_2097_10471"/>
<feBlend mode="normal" in="SourceGraphic" in2="effect1_dropShadow_2097_10471" result="shape"/>
</filter>
<filter id="filter1_d_2097_10471" x="1" y="2" width="18" height="18" filterUnits="userSpaceOnUse" color-interpolation-filters="sRGB">
<feFlood flood-opacity="0" result="BackgroundImageFix"/>
<feColorMatrix in="SourceAlpha" type="matrix" values="0 0 0 0 0 0 0 0 0 0 0 0 0 0 0 0 0 0 127 0" result="hardAlpha"/>
<feOffset dy="1"/>
<feGaussianBlur stdDeviation="0.5"/>
<feComposite in2="hardAlpha" operator="out"/>
<feColorMatrix type="matrix" values="0 0 0 0 0 0 0 0 0 0 0 0 0 0 0 0 0 0 0.1 0"/>
<feBlend mode="normal" in2="BackgroundImageFix" result="effect1_dropShadow_2097_10471"/>
<feBlend mode="normal" in="SourceGraphic" in2="effect1_dropShadow_2097_10471" result="shape"/>
</filter>
</defs>
</svg>
