<svg width="22" height="22" viewBox="0 0 22 22" fill="none" xmlns="http://www.w3.org/2000/svg">
<g filter="url(#filter0_d_1994_8449)">
<rect x="7" y="19" width="10" height="1" fill="black"/>
<rect x="13" y="18" width="1" height="1" fill="black"/>
<rect x="10" y="18" width="1" height="1" fill="#808080"/>
<rect x="10" y="10" width="1" height="1" fill="#808080"/>
<rect x="11" y="10" width="2" height="1" fill="#C0C0C0"/>
<rect x="12" y="9" width="2" height="1" fill="#C0C0C0"/>
<rect x="13" y="8" width="2" height="1" fill="#C0C0C0"/>
<rect x="14" y="7" width="2" height="1" fill="#C0C0C0"/>
<rect x="15" y="6" width="2" height="1" fill="#C0C0C0"/>
<rect x="7" y="6" width="8" height="1" fill="white"/>
<rect x="8" y="7" width="6" height="1" fill="white"/>
<rect x="9" y="8" width="4" height="1" fill="white"/>
<rect x="10" y="9" width="2" height="1" fill="white"/>
<rect x="11" y="11" width="1" height="1" fill="black"/>
<rect x="13" y="10" width="1" height="1" fill="black"/>
<rect x="8" y="5" width="1" height="1" fill="black"/>
<rect x="14" y="9" width="1" height="1" fill="black"/>
<rect x="15" y="8" width="1" height="1" fill="black"/>
<rect x="16" y="7" width="1" height="1" fill="black"/>
<rect x="17" y="6" width="1" height="1" fill="black"/>
<rect x="5" y="5" width="14" height="1" fill="black"/>
<rect x="9" y="9" width="1" height="1" fill="#808080"/>
<rect x="8" y="8" width="1" height="1" fill="#808080"/>
<rect x="7" y="7" width="1" height="1" fill="#808080"/>
<rect x="6" y="6" width="1" height="1" fill="#808080"/>
<rect x="11" y="12" width="1" height="7" fill="#C0C0C0"/>
<rect x="12" y="11" width="1" height="8" fill="black"/>
<path fill-rule="evenodd" clip-rule="evenodd" d="M6 0H3V1V2V3H4V2H5V3H6V4H7V5H8V6H9V7H10V8H11V9H12V10H13V9H12V8H11V7H10V6H9V5H8V4H7V3H6V2H5V1H6V0Z" fill="black"/>
</g>
<defs>
<filter id="filter0_d_1994_8449" x="0" y="0" width="23" height="22" filterUnits="userSpaceOnUse" color-interpolation-filters="sRGB">
<feFlood flood-opacity="0" result="BackgroundImageFix"/>
<feColorMatrix in="SourceAlpha" type="matrix" values="0 0 0 0 0 0 0 0 0 0 0 0 0 0 0 0 0 0 127 0" result="hardAlpha"/>
<feOffset dy="1"/>
<feGaussianBlur stdDeviation="0.5"/>
<feComposite in2="hardAlpha" operator="out"/>
<feColorMatrix type="matrix" values="0 0 0 0 0 0 0 0 0 0 0 0 0 0 0 0 0 0 0.1 0"/>
<feBlend mode="normal" in2="BackgroundImageFix" result="effect1_dropShadow_1994_8449"/>
<feBlend mode="normal" in="SourceGraphic" in2="effect1_dropShadow_1994_8449" result="shape"/>
</filter>
</defs>
</svg>
